<svg version="1.1" id="Layer_1" xmlns="http://www.w3.org/2000/svg" xmlns:xlink="http://www.w3.org/1999/xlink" x="0px" y="0px"
	 width="100%" viewBox="0 0 240 240" enable-background="new 0 0 240 240" xml:space="preserve">
<defs>
  <linearGradient id="gradient" x1="0%" y1="0%" x2="100%" y2="0%">
    <stop offset="0%" style="stop-color: rgba(255,136,245,1)" />
    <stop offset="35%" style="stop-color: rgba(9,9,121,1)" />
    <stop offset="100%" style="stop-color: rgba(0,212,255,1)" />
  </linearGradient>
</defs>

<path fill="url(#gradient)" opacity="1.000000" stroke="none" 
	d="
M75.024429,31.081926 
	C89.017174,31.077078 102.514847,31.003496 116.011444,31.093513 
	C124.237556,31.148375 131.549133,33.392147 136.074570,40.979816 
	C143.148941,52.841221 136.277512,67.964516 122.587234,70.255051 
	C110.858047,72.217461 98.975868,70.969803 87.169106,71.075493 
	C82.347610,71.118645 80.801399,72.410934 80.917061,77.299759 
	C81.161057,87.613304 80.746933,97.941467 80.659805,108.264122 
	C80.598198,115.562538 85.304062,120.750725 91.976410,120.862518 
	C98.219376,120.967117 103.383194,115.902283 103.593506,108.921349 
	C103.839325,100.762001 103.768906,92.588989 103.647026,84.424728 
	C103.598541,81.177155 104.453209,79.492012 108.095947,79.502274 
	C111.882454,79.512939 111.949821,81.864113 111.952591,84.489258 
	C111.961555,92.988136 112.227509,101.498421 111.877266,109.982964 
	C111.470177,119.844559 103.969147,127.827576 94.542381,129.139725 
	C85.804916,130.355927 76.917610,124.841774 73.571045,116.291298 
	C72.369827,113.222176 72.519005,110.042557 72.498489,106.919426 
	C72.412041,93.762489 72.654106,80.602531 72.480042,67.447594 
	C72.429893,63.658245 73.726494,62.529949 77.362679,62.553661 
	C91.017632,62.642708 104.674202,62.519360 118.329941,62.436745 
	C125.403099,62.393955 130.573685,57.754131 130.685501,51.445824 
	C130.806671,44.610352 125.875191,39.779236 118.569656,39.772858 
	C100.916382,39.757446 83.264137,40.267887 65.609238,39.559242 
	C59.976715,39.333157 55.346268,43.175682 53.857693,48.555840 
	C52.525795,53.369724 54.715183,58.158398 59.637249,61.148949 
	C60.347179,61.580284 61.142513,61.874783 61.837692,62.326004 
	C64.216309,63.869900 64.443336,66.264923 63.543716,68.509506 
	C62.426548,71.296875 59.922607,70.361206 57.941124,69.667854 
	C50.717911,67.140358 44.888412,58.377789 44.996487,50.461590 
	C45.102657,42.684734 51.001499,35.028511 58.673645,32.491039 
	C63.869652,30.772522 69.209244,31.150623 75.024429,31.081926 
z"/>
<path fill="url(#gradient)" opacity="1.000000" stroke="none" 
	d="
M24.725538,153.999939 
	C24.728058,146.169754 24.664007,138.838806 24.749044,131.509583 
	C24.877687,120.421829 33.302719,111.953384 44.312366,111.724777 
	C55.043686,111.501953 63.905975,120.046829 64.141403,131.239258 
	C64.372528,142.227356 64.350822,153.224487 64.210579,164.214737 
	C64.158485,168.296982 65.152534,170.152832 69.793114,170.003601 
	C80.777733,169.650375 91.783340,170.008133 102.775490,169.806778 
	C108.678917,169.698624 112.481346,166.453049 114.090347,160.955338 
	C115.573891,155.886276 113.207664,152.276001 109.567177,149.186172 
	C107.384888,147.333969 104.723557,147.165451 102.018913,147.168198 
	C94.022224,147.176300 86.025467,147.145340 78.028824,147.164612 
	C75.095688,147.171692 72.753838,146.795273 72.790329,142.916077 
	C72.827278,138.989136 75.265343,138.803879 78.148148,138.816162 
	C86.477974,138.851624 94.811394,138.686432 103.137146,138.875412 
	C114.139641,139.125168 122.131058,147.145187 122.348961,157.842285 
	C122.573845,168.881912 114.933212,177.772217 103.910011,178.104370 
	C89.262146,178.545746 74.591217,178.191269 59.930569,178.258942 
	C56.075638,178.276733 55.760036,175.886642 55.764614,172.948654 
	C55.785889,159.287247 55.801514,145.625443 55.714622,131.964432 
	C55.670555,125.036186 52.108315,120.788216 46.063118,120.094437 
	C38.945393,119.277573 33.343693,123.571175 33.251560,130.776108 
	C33.015141,149.264328 33.081356,167.758591 33.248268,186.248444 
	C33.296806,191.625076 36.718407,195.165146 41.976887,196.365341 
	C46.872028,197.482605 51.810932,195.373611 54.387280,191.040985 
	C54.811817,190.327042 55.133892,189.552917 55.522572,188.816772 
	C57.101261,185.826782 59.838985,186.469513 62.101654,187.217087 
	C64.908630,188.144485 63.628304,190.433456 62.947281,192.256699 
	C59.478020,201.544647 50.158146,207.039673 40.668129,204.999222 
	C31.775669,203.087250 24.701149,196.358536 24.722780,185.487732 
	C24.743330,175.158508 24.726250,164.829224 24.725538,153.999939 
z"/>
<path fill="url(#gradient)" opacity="1.000000" stroke="none" 
	d="
M182.092468,62.315544 
	C188.197586,53.122875 196.194489,50.029144 205.913513,52.831863 
	C213.567337,55.039032 219.137436,62.966930 219.220245,72.569168 
	C219.371033,90.052216 219.310837,107.537910 219.222549,125.021912 
	C219.164169,136.585205 211.049850,145.134476 200.213943,145.299561 
	C188.554276,145.477188 180.070663,137.377762 179.831192,125.414474 
	C179.611221,114.425415 179.663956,103.426491 179.848526,92.436142 
	C179.912872,88.604195 178.730820,87.087715 174.734924,87.160820 
	C163.745178,87.361862 152.748550,87.148979 141.756363,87.264915 
	C134.383499,87.342674 129.583710,92.068382 129.539490,98.939667 
	C129.501083,104.908043 134.980270,109.886078 141.942841,109.980240 
	C149.936630,110.088364 157.932846,110.029442 165.927979,110.018158 
	C168.896805,110.013969 171.226059,110.542534 171.103195,114.362320 
	C170.990509,117.865341 168.875992,118.312065 166.072510,118.293625 
	C157.744553,118.238846 149.414688,118.372337 141.087952,118.258133 
	C130.276489,118.109856 121.996902,110.075951 121.589218,99.533829 
	C121.166153,88.593613 128.734528,79.514412 139.827118,79.100220 
	C154.463730,78.553711 169.134781,78.947655 183.790863,78.892021 
	C187.856400,78.876579 188.177917,81.477783 188.167694,84.597923 
	C188.123489,98.089821 188.071320,111.582634 188.185303,125.073738 
	C188.250458,132.784973 193.366592,137.518188 200.515900,136.838135 
	C206.376968,136.280624 210.621017,132.373550 210.684174,126.476578 
	C210.883926,107.824646 210.851685,89.168900 210.729721,70.515800 
	C210.698547,65.747818 206.948120,61.591343 202.453445,60.462372 
	C197.755875,59.282433 192.806198,61.119518 190.142044,65.036476 
	C189.955002,65.311478 189.742783,65.587341 189.634552,65.895241 
	C188.291687,69.715706 185.425980,71.535019 181.907272,69.681908 
	C178.600037,67.940163 181.376480,65.036011 182.092468,62.315544 
z"/>
<path fill="url(#gradient)" opacity="1.000000" stroke="none" 
	d="
M155.999695,225.939865 
	C146.001175,225.932480 136.500565,226.048935 127.004837,225.884125 
	C115.500603,225.684479 108.244064,220.367294 105.695465,210.608047 
	C102.842308,199.682632 110.136894,188.389862 121.637566,186.630096 
	C130.720917,185.240189 139.937607,186.264526 149.091980,186.041290 
	C152.422836,185.960083 155.761780,185.944122 159.089630,186.079865 
	C162.566803,186.221664 163.739899,184.652039 163.697159,181.266190 
	C163.560455,170.434891 163.749496,159.599258 163.595108,148.768417 
	C163.490326,141.417282 158.270035,135.427795 152.109665,136.334564 
	C145.305695,137.336060 140.252563,140.017288 140.287811,149.066971 
	C140.318329,156.899475 140.251617,164.732437 140.302017,172.564728 
	C140.320068,175.372269 139.928162,177.395432 136.311050,177.418320 
	C132.550720,177.442093 132.495865,175.298279 132.530869,172.533295 
	C132.631989,164.546417 132.545670,156.557388 132.600372,148.569656 
	C132.683136,136.485382 139.347626,129.108917 150.740219,128.408722 
	C161.931778,127.720856 170.753647,134.894531 171.514359,146.695236 
	C172.273804,158.476242 171.746597,170.340317 171.775146,182.167984 
	C171.776352,182.665955 171.674744,183.163300 171.652802,183.662323 
	C171.181793,194.365921 171.182678,194.364349 160.567566,194.366180 
	C149.071213,194.368179 137.574295,194.308075 126.078773,194.407974 
	C121.090866,194.451294 116.931168,196.493378 114.496040,200.971649 
	C112.307510,204.996445 112.894478,209.059128 115.549835,212.751450 
	C117.991302,216.146362 121.638252,217.537537 125.559067,217.547318 
	C143.382553,217.591766 161.214493,217.708725 179.027222,217.215775 
	C188.508331,216.953400 193.496841,207.813477 188.986893,200.280304 
	C187.915344,198.490433 186.476807,196.969131 184.660019,196.256088 
	C180.087860,194.461655 180.046188,191.277878 181.255783,187.456772 
	C187.831543,186.957214 194.827530,191.897842 197.288879,198.642456 
	C202.452042,212.790543 192.899826,225.717194 176.998199,225.976654 
	C170.167419,226.088120 163.332687,225.958923 155.999695,225.939865 
z"/>
</svg>